<svg width="40" height="40" viewBox="0 0 40 40" fill="none" xmlns="http://www.w3.org/2000/svg">
<circle cx="20" cy="20" r="19" transform="matrix(-1 0 0 1 40 0)" stroke="#A8EB75" stroke-width="2"/>
<path d="M24.7071 19.2929C25.0976 19.6834 25.0976 20.3166 24.7071 20.7071L18.3432 27.0711C17.9526 27.4616 17.3195 27.4616 16.9289 27.0711C16.5384 26.6805 16.5384 26.0474 16.9289 25.6569L22.5858 20L16.9289 14.3432C16.5384 13.9526 16.5384 13.3195 16.9289 12.9289C17.3195 12.5384 17.9526 12.5384 18.3431 12.9289L24.7071 19.2929ZM23 19L24 19L24 21L23 21L23 19Z" fill="#A8EB75"/>
</svg>
